# Blender 3.6.2
# www.blender.org
mtllib boat.mtl
o Boat
v -1.944079 1.085729 6.590686
v -1.944079 2.000000 7.032591
v -1.944079 0.882367 -7.032591
v -1.944079 2.000000 -7.032591
v 0.000000 0.874564 -11.145812
v 0.000000 2.000000 -11.145812
v 0.000000 0.874564 8.453743
v 0.000000 2.000000 8.453743
v -3.327947 0.000000 -0.478457
v -3.327947 2.000000 -0.478457
v 0.000000 2.000000 -9.855710
v 0.000000 -0.902851 -1.112931
v 0.000000 -0.014143 -5.422740
v 0.000000 0.362555 -3.575050
v -2.636013 0.441183 -3.755524
v -2.636013 2.000000 -3.755524
v -3.140222 0.704896 3.277067
v -2.642374 2.000000 -0.473513
v 0.000000 -0.014143 3.670406
v -3.140222 2.000000 3.277067
v 0.000000 2.000000 7.555331
v -2.642374 2.000000 -0.473513
v 0.000000 2.000000 -9.855710
v -2.419542 2.000000 3.442898
v -1.924649 2.000000 -4.116596
v -1.494385 2.000000 6.524220
v -1.258703 2.000000 -7.056980
v 0.000000 2.000000 -9.855710
v -2.642374 0.935432 -0.473513
v -2.642374 2.000000 -0.473513
v -1.924649 2.000000 -4.116596
v 0.000000 0.935432 -9.855710
v -2.419542 2.000000 3.442898
v 0.000000 2.000000 7.555331
v -1.494385 2.000000 6.524220
v -1.258703 2.000000 -7.056980
v 0.000000 0.362555 -6.744708
v -1.924649 2.000000 -4.116596
v -2.084435 0.362555 -0.500050
v -2.419542 2.000000 3.442898
v 0.000000 2.000000 7.555331
v -1.494385 2.000000 6.524220
v -1.258703 2.000000 -7.056980
v -1.924649 0.935432 -4.116596
v -2.419542 0.935432 3.442898
v 0.000000 0.935432 7.555331
v -1.494385 0.935432 6.524220
v -1.258703 0.935432 -7.056980
v 0.000000 0.362555 -0.487368
v -1.606727 0.362555 -2.924834
v 0.000000 0.362555 2.477219
v -1.936121 0.362555 2.106658
v 0.000000 0.362555 4.843835
v -0.817051 0.362555 4.157542
v -1.163482 0.362555 -4.881913
v 1.944079 1.085729 6.590686
v 1.944079 2.000000 7.032591
v 1.944079 0.882367 -7.032591
v 1.944079 2.000000 -7.032591
v 3.327947 0.000000 -0.478457
v 3.327947 2.000000 -0.478457
v 2.636013 0.441183 -3.755524
v 2.636013 2.000000 -3.755524
v 3.140222 0.704896 3.277067
v 2.642374 2.000000 -0.473513
v 3.140222 2.000000 3.277067
v 2.642374 2.000000 -0.473513
v 2.419542 2.000000 3.442898
v 1.924649 2.000000 -4.116596
v 1.494385 2.000000 6.524220
v 1.258703 2.000000 -7.056980
v 2.642374 0.935432 -0.473513
v 2.642374 2.000000 -0.473513
v 1.924649 2.000000 -4.116596
v 2.419542 2.000000 3.442898
v 1.494385 2.000000 6.524220
v 1.258703 2.000000 -7.056980
v 1.924649 2.000000 -4.116596
v 2.084435 0.362555 -0.500050
v 2.419542 2.000000 3.442898
v 1.494385 2.000000 6.524220
v 1.258703 2.000000 -7.056980
v 1.924649 0.935432 -4.116596
v 2.419542 0.935432 3.442898
v 1.494385 0.935432 6.524220
v 1.258703 0.935432 -7.056980
v 1.606727 0.362555 -2.924834
v 1.936121 0.362555 2.106658
v 0.817051 0.362555 4.157542
v 1.163482 0.362555 -4.881913
vn -0.0000 1.0000 -0.0000
vn -0.6731 -0.3218 0.6659
vn -0.2422 -0.9501 0.1966
vn -0.9041 -0.0000 -0.4273
vn -0.9784 -0.0000 -0.2066
vn -0.2903 -0.9383 -0.1876
vn -0.9988 -0.0000 0.0499
vn -0.2803 -0.9417 -0.1860
vn -0.9406 -0.0000 0.3395
vn -0.2417 -0.9514 0.1907
vn 0.9753 -0.0000 0.2209
vn 0.9578 -0.0000 -0.2876
vn 0.9120 -0.0000 0.4102
vn 0.9984 -0.0000 -0.0568
vn 0.1588 0.9690 -0.1891
vn 0.6894 0.7074 0.1561
vn 0.4160 0.8806 -0.2270
vn 0.3735 0.9123 0.1680
vn 0.5679 -0.0000 -0.8231
vn 0.9811 -0.0000 0.1933
vn 0.7125 0.6875 0.1404
vn 0.7148 0.6981 -0.0407
vn 0.5901 -0.0000 0.8073
vn 0.2422 -0.9501 0.1966
vn 0.9041 -0.0000 -0.4273
vn 0.9784 -0.0000 -0.2066
vn 0.2846 -0.9389 -0.1936
vn 0.9988 -0.0000 0.0499
vn 0.3122 -0.9388 -0.1458
vn 0.9427 -0.1451 0.3003
vn 0.2259 -0.9578 0.1779
vn -0.9753 -0.0000 0.2209
vn -0.9578 -0.0000 -0.2876
vn -0.9120 -0.0000 0.4102
vn -0.9984 -0.0000 -0.0568
vn -0.1412 0.9686 -0.2046
vn -0.6894 0.7074 0.1561
vn -0.3791 0.9183 -0.1138
vn -0.3735 0.9123 0.1680
vn -0.5679 -0.0000 -0.8231
vn -0.9811 -0.0000 0.1933
vn -0.7125 0.6875 0.1404
vn -0.7148 0.6981 -0.0407
vn -0.5901 -0.0000 0.8073
vn -0.2713 -0.9463 0.1758
vn -0.2846 -0.9389 -0.1936
vn -0.3122 -0.9388 -0.1458
vn -0.9427 -0.1451 0.3003
vn -0.2259 -0.9578 0.1779
vn 0.1412 0.9686 -0.2046
vn 0.3791 0.9183 -0.1138
vn 0.3574 0.9069 0.2232
vn 0.6731 -0.3218 0.6659
vn 0.2713 -0.9463 0.1758
vn 0.2903 -0.9383 -0.1876
vn 0.2803 -0.9417 -0.1860
vn 0.9406 -0.0000 0.3395
vn 0.2417 -0.9514 0.1907
vn -0.1588 0.9690 -0.1891
vn -0.4160 0.8806 -0.2270
vn -0.3574 0.9069 0.2232
vt 0.875000 0.500000
vt 0.841267 0.562500
vt 0.827286 0.518311
vt 0.375000 0.875000
vt 0.625000 1.000000
vt 0.375000 1.000000
vt 0.750000 0.513322
vt 0.250000 0.687500
vt 0.125000 0.750000
vt 0.125000 0.687500
vt 0.375000 0.250000
vt 0.625000 0.375000
vt 0.375000 0.375000
vt 0.625000 0.187500
vt 0.375000 0.187500
vt 0.125000 0.562500
vt 0.250000 0.625000
vt 0.125000 0.625000
vt 0.375000 0.062500
vt 0.625000 0.125000
vt 0.375000 0.125000
vt 0.846313 0.687500
vt 0.838291 0.736017
vt 0.125000 0.500000
vt 0.250000 0.562500
vt 0.375000 0.000000
vt 0.625000 0.062500
vt 0.849249 0.625000
vt 0.875000 0.687500
vt 0.875000 0.750000
vt 0.750000 0.737393
vt 0.875000 0.562500
vt 0.875000 0.625000
vt 0.750000 0.687500
vt 0.750000 0.625000
vt 0.750000 0.562500
vt 0.625000 0.875000
vt 0.625000 0.250000
vt 0.250000 0.500000
vt 0.625000 0.000000
vt 0.750000 0.500000
vt 0.250000 0.750000
vt 0.750000 0.750000
s 0
f 4/1/1 25/2/1 27/3/1
f 7/4/2 2/5/2 1/6/2
f 23/7/1 36/3/1 28/7/1
f 19/8/3 1/9/3 17/10/3
f 3/11/4 6/12/4 5/13/4
f 16/14/5 3/11/5 15/15/5
f 15/16/6 12/17/6 9/18/6
f 17/19/7 10/20/7 9/21/7
f 33/22/1 42/23/1 40/22/1
f 10/20/5 15/15/5 9/21/5
f 3/24/8 13/25/8 15/16/8
f 1/26/9 20/27/9 17/19/9
f 9/18/10 19/8/10 17/10/10
f 22/28/1 33/22/1 30/28/1
f 25/2/1 30/28/1 31/2/1
f 26/23/1 20/29/1 2/30/1
f 22/28/1 20/29/1 24/22/1
f 26/23/1 34/31/1 35/23/1
f 22/28/1 16/32/1 10/33/1
f 28/7/1 43/3/1 11/7/1
f 30/28/1 40/22/1 18/28/1
f 31/2/1 18/28/1 38/2/1
f 24/22/1 35/23/1 33/22/1
f 27/3/1 31/2/1 36/3/1
f 38/2/11 48/3/11 43/3/11
f 42/23/12 45/22/12 40/22/12
f 43/3/13 32/7/13 11/7/13
f 40/22/14 29/28/14 18/28/14
f 36/3/1 38/2/1 43/3/1
f 35/23/1 41/31/1 42/23/1
f 47/23/15 53/31/15 54/23/15
f 44/2/16 55/3/16 48/3/16
f 45/22/17 54/23/17 52/22/17
f 48/3/18 37/7/18 32/7/18
f 41/31/19 47/23/19 42/23/19
f 18/28/20 44/2/20 38/2/20
f 51/34/1 54/23/1 53/31/1
f 49/35/1 52/22/1 51/34/1
f 50/2/1 49/35/1 14/36/1
f 55/3/1 14/36/1 37/7/1
f 29/28/21 50/2/21 44/2/21
f 29/28/22 52/22/22 39/28/22
f 71/3/1 63/32/1 59/1/1
f 7/4/23 57/5/23 8/37/23
f 23/7/1 77/3/1 71/3/1
f 56/9/24 19/8/24 64/10/24
f 58/11/25 6/12/25 59/38/25
f 58/11/26 63/14/26 62/15/26
f 62/16/27 12/17/27 13/25/27
f 64/19/28 61/20/28 66/27/28
f 75/22/1 81/23/1 76/23/1
f 62/15/26 61/20/26 60/21/26
f 58/24/29 13/25/29 5/39/29
f 56/26/30 66/27/30 57/40/30
f 60/18/31 19/8/31 12/17/31
f 67/28/1 75/22/1 68/22/1
f 69/2/1 73/28/1 67/28/1
f 57/30/1 68/22/1 70/23/1
f 66/29/1 67/28/1 68/22/1
f 70/23/1 34/31/1 21/31/1
f 67/28/1 63/32/1 69/2/1
f 28/7/1 82/3/1 77/3/1
f 73/28/1 80/22/1 75/22/1
f 74/2/1 65/28/1 73/28/1
f 68/22/1 76/23/1 70/23/1
f 71/3/1 74/2/1 69/2/1
f 86/3/32 78/2/32 82/3/32
f 84/22/33 81/23/33 80/22/33
f 32/7/34 82/3/34 11/7/34
f 72/28/35 80/22/35 65/28/35
f 77/3/1 78/2/1 74/2/1
f 76/23/1 41/31/1 34/31/1
f 85/23/36 53/31/36 46/31/36
f 90/3/37 83/2/37 86/3/37
f 84/22/38 89/23/38 85/23/38
f 37/7/39 86/3/39 32/7/39
f 85/23/40 41/31/40 81/23/40
f 83/2/41 65/28/41 78/2/41
f 51/34/1 89/23/1 88/22/1
f 49/35/1 88/22/1 79/28/1
f 49/35/1 87/2/1 14/36/1
f 14/36/1 90/3/1 37/7/1
f 87/2/42 72/28/42 83/2/42
f 72/28/43 88/22/43 84/22/43
f 23/7/1 6/41/1 4/1/1
f 4/1/1 16/32/1 25/2/1
f 27/3/1 23/7/1 4/1/1
f 7/4/44 8/37/44 2/5/44
f 23/7/1 27/3/1 36/3/1
f 19/8/45 7/42/45 1/9/45
f 3/11/4 4/38/4 6/12/4
f 16/14/5 4/38/5 3/11/5
f 15/16/46 13/25/46 12/17/46
f 17/19/7 20/27/7 10/20/7
f 33/22/1 35/23/1 42/23/1
f 10/20/5 16/14/5 15/15/5
f 3/24/47 5/39/47 13/25/47
f 1/26/48 2/40/48 20/27/48
f 9/18/49 12/17/49 19/8/49
f 22/28/1 24/22/1 33/22/1
f 25/2/1 22/28/1 30/28/1
f 8/43/1 21/31/1 26/23/1
f 26/23/1 24/22/1 20/29/1
f 2/30/1 8/43/1 26/23/1
f 22/28/1 10/33/1 20/29/1
f 26/23/1 21/31/1 34/31/1
f 22/28/1 25/2/1 16/32/1
f 28/7/1 36/3/1 43/3/1
f 30/28/1 33/22/1 40/22/1
f 31/2/1 30/28/1 18/28/1
f 24/22/1 26/23/1 35/23/1
f 27/3/1 25/2/1 31/2/1
f 38/2/11 44/2/11 48/3/11
f 42/23/12 47/23/12 45/22/12
f 43/3/13 48/3/13 32/7/13
f 40/22/14 45/22/14 29/28/14
f 36/3/1 31/2/1 38/2/1
f 35/23/1 34/31/1 41/31/1
f 47/23/50 46/31/50 53/31/50
f 44/2/16 50/2/16 55/3/16
f 45/22/51 47/23/51 54/23/51
f 48/3/52 55/3/52 37/7/52
f 41/31/19 46/31/19 47/23/19
f 18/28/20 29/28/20 44/2/20
f 51/34/1 52/22/1 54/23/1
f 49/35/1 39/28/1 52/22/1
f 50/2/1 39/28/1 49/35/1
f 55/3/1 50/2/1 14/36/1
f 29/28/21 39/28/21 50/2/21
f 29/28/22 45/22/22 52/22/22
f 59/1/1 6/41/1 23/7/1
f 71/3/1 69/2/1 63/32/1
f 59/1/1 23/7/1 71/3/1
f 7/4/53 56/6/53 57/5/53
f 23/7/1 28/7/1 77/3/1
f 56/9/54 7/42/54 19/8/54
f 58/11/25 5/13/25 6/12/25
f 58/11/26 59/38/26 63/14/26
f 62/16/55 60/18/55 12/17/55
f 64/19/28 60/21/28 61/20/28
f 75/22/1 80/22/1 81/23/1
f 62/15/26 63/14/26 61/20/26
f 58/24/56 62/16/56 13/25/56
f 56/26/57 64/19/57 66/27/57
f 60/18/58 64/10/58 19/8/58
f 67/28/1 73/28/1 75/22/1
f 69/2/1 74/2/1 73/28/1
f 70/23/1 21/31/1 8/43/1
f 57/30/1 66/29/1 68/22/1
f 70/23/1 8/43/1 57/30/1
f 66/29/1 61/33/1 67/28/1
f 70/23/1 76/23/1 34/31/1
f 67/28/1 61/33/1 63/32/1
f 28/7/1 11/7/1 82/3/1
f 73/28/1 65/28/1 80/22/1
f 74/2/1 78/2/1 65/28/1
f 68/22/1 75/22/1 76/23/1
f 71/3/1 77/3/1 74/2/1
f 86/3/32 83/2/32 78/2/32
f 84/22/33 85/23/33 81/23/33
f 32/7/34 86/3/34 82/3/34
f 72/28/35 84/22/35 80/22/35
f 77/3/1 82/3/1 78/2/1
f 76/23/1 81/23/1 41/31/1
f 85/23/59 89/23/59 53/31/59
f 90/3/37 87/2/37 83/2/37
f 84/22/60 88/22/60 89/23/60
f 37/7/61 90/3/61 86/3/61
f 85/23/40 46/31/40 41/31/40
f 83/2/41 72/28/41 65/28/41
f 51/34/1 53/31/1 89/23/1
f 49/35/1 51/34/1 88/22/1
f 49/35/1 79/28/1 87/2/1
f 14/36/1 87/2/1 90/3/1
f 87/2/42 79/28/42 72/28/42
f 72/28/43 79/28/43 88/22/43
